
<svg xmlns="http://www.w3.org/2000/svg" viewBox="0 0 107.74 26.66">
	<defs>
		<style>
			.cls-1{fill:#8C9091;}
		</style>
	</defs>
	<g id="Capa_2" data-name="Capa 2">
		<g id="Capa_1-2" data-name="Capa 1">
			<path class="cls-1" d="M92.49,21.53a4.38,4.38,0,1,1-8.69.79,4.36,4.36,0,0,1,2.76-4.1c.49-.21,1-.31,1.51-.49a11.57,11.57,0,0,0,1.53-.66,2.5,2.5,0,0,0,.83-.72A1,1,0,0,0,90,14.67a2.65,2.65,0,0,0-1.94,0c-.73.23-1.44.54-2.18.76a4.2,4.2,0,0,1-4.39-1.08A4.31,4.31,0,0,1,84.94,7,4.39,4.39,0,0,1,88.26,8.9a13.48,13.48,0,0,0,1.22,1.67,4.19,4.19,0,0,0,1.33,1,1,1,0,0,0,1.48-1.12,3.78,3.78,0,0,0-.44-1.34,17.72,17.72,0,0,0-1.16-1.71,4.83,4.83,0,0,1-1.07-3.25A4.05,4.05,0,0,1,92.32.33a4.17,4.17,0,0,1,4.7,1,4.1,4.1,0,0,1,1,4.62,12.33,12.33,0,0,1-1.14,1.89A17.5,17.5,0,0,0,95.79,9.5a2.42,2.42,0,0,0-.22,1.22.9.9,0,0,0,1.28.86,3.8,3.8,0,0,0,1.39-.87A13.65,13.65,0,0,0,99.6,9a4.45,4.45,0,0,1,3.14-2,4.3,4.3,0,0,1,5,3.85,4.37,4.37,0,0,1-4.33,4.76,7.16,7.16,0,0,1-1.86-.38c-.56-.16-1.08-.46-1.65-.57a4.29,4.29,0,0,0-1.71-.06,1.14,1.14,0,0,0-.63,2,2.9,2.9,0,0,0,1.1.76c.76.31,1.55.52,2.33.77a4.38,4.38,0,0,1,3,5.41A4.38,4.38,0,0,1,95.38,22c0-.37.07-.74.1-1.11a4.18,4.18,0,0,0-.31-2.1,1.39,1.39,0,0,0-1.17-1c-.62,0-.94.41-1.21.89a3.49,3.49,0,0,0-.37,1.77C92.43,20.76,92.46,21.07,92.49,21.53Z"/>
			<path class="cls-1" d="M52.41,21.53a4.38,4.38,0,1,1-8.69.79,4.36,4.36,0,0,1,2.76-4.1c.49-.21,1-.31,1.51-.49a11.57,11.57,0,0,0,1.53-.66,2.5,2.5,0,0,0,.83-.72,1,1,0,0,0-.47-1.68,2.65,2.65,0,0,0-1.94,0c-.73.23-1.44.54-2.18.76a4.2,4.2,0,0,1-4.39-1.08A4.31,4.31,0,0,1,44.86,7,4.36,4.36,0,0,1,48.17,8.9a14.67,14.67,0,0,0,1.23,1.67,4.19,4.19,0,0,0,1.33,1,1,1,0,0,0,1.48-1.12,3.78,3.78,0,0,0-.44-1.34,19.75,19.75,0,0,0-1.16-1.71,4.83,4.83,0,0,1-1.07-3.25A4.05,4.05,0,0,1,52.24.33a4.17,4.17,0,0,1,4.7,1,4.1,4.1,0,0,1,1,4.62,11.65,11.65,0,0,1-1.15,1.89,19.6,19.6,0,0,0-1,1.68,2.42,2.42,0,0,0-.22,1.22.9.9,0,0,0,1.28.86,3.8,3.8,0,0,0,1.39-.87A13.65,13.65,0,0,0,59.52,9a4.43,4.43,0,0,1,3.14-2,4.3,4.3,0,0,1,5,3.85,4.37,4.37,0,0,1-4.33,4.76,7.16,7.16,0,0,1-1.86-.38c-.56-.16-1.08-.46-1.65-.57a4.29,4.29,0,0,0-1.71-.06,1.14,1.14,0,0,0-.63,2,2.9,2.9,0,0,0,1.1.76c.75.31,1.55.52,2.33.77a4.38,4.38,0,0,1,3,5.41A4.38,4.38,0,0,1,55.3,22c0-.37.07-.74.1-1.11a4.18,4.18,0,0,0-.31-2.1,1.39,1.39,0,0,0-1.17-1c-.62,0-.94.41-1.21.89a3.49,3.49,0,0,0-.37,1.77C52.35,20.76,52.38,21.07,52.41,21.53Z"/>
			<path class="cls-1" d="M12.33,21.53A4.3,4.3,0,0,1,11,25.38a4.31,4.31,0,0,1-7.36-3.06,4.36,4.36,0,0,1,2.76-4.1c.49-.21,1-.31,1.51-.49a11.57,11.57,0,0,0,1.53-.66,2.5,2.5,0,0,0,.83-.72,1,1,0,0,0-.47-1.68,2.65,2.65,0,0,0-1.94,0c-.74.23-1.44.54-2.18.76a4.2,4.2,0,0,1-4.39-1.08A4.27,4.27,0,0,1,.42,9.41,4.3,4.3,0,0,1,4.78,7,4.36,4.36,0,0,1,8.09,8.9a14.67,14.67,0,0,0,1.23,1.67,4.19,4.19,0,0,0,1.33,1,1,1,0,0,0,1.48-1.12,3.78,3.78,0,0,0-.44-1.34,19.75,19.75,0,0,0-1.16-1.71A4.83,4.83,0,0,1,9.46,4.11,4.05,4.05,0,0,1,12.16.33a4.17,4.17,0,0,1,4.7,1,4.12,4.12,0,0,1,1,4.62,11.65,11.65,0,0,1-1.15,1.89,19.6,19.6,0,0,0-1,1.68,2.42,2.42,0,0,0-.22,1.22.9.9,0,0,0,1.28.86,3.89,3.89,0,0,0,1.39-.87A13.65,13.65,0,0,0,19.44,9a4.44,4.44,0,0,1,3.13-2,4.3,4.3,0,0,1,5,3.85,4.37,4.37,0,0,1-4.33,4.76,7.16,7.16,0,0,1-1.86-.38c-.56-.16-1.08-.46-1.65-.57A4.29,4.29,0,0,0,18,14.6a1.13,1.13,0,0,0-.63,2,2.9,2.9,0,0,0,1.1.76c.75.31,1.55.52,2.33.77a4.38,4.38,0,0,1,3,5.41A4.38,4.38,0,0,1,15.22,22c0-.37.07-.74.1-1.11a4.18,4.18,0,0,0-.31-2.1,1.39,1.39,0,0,0-1.17-1c-.62,0-.94.41-1.21.89a3.49,3.49,0,0,0-.37,1.77C12.27,20.76,12.3,21.07,12.33,21.53Z"/>
		</g>
	</g>
</svg>